<svg width="14" height="12" viewBox="0 0 14 12" fill="none" xmlns="http://www.w3.org/2000/svg">
<path d="M12.4167 5.08334H3.25L6.26583 2.0675C6.35175 1.98229 6.41995 1.8809 6.46648 1.7692C6.51302 1.65749 6.53698 1.53768 6.53698 1.41667C6.53698 1.29566 6.51302 1.17584 6.46648 1.06414C6.41995 0.952435 6.35175 0.851051 6.26583 0.765835C6.09408 0.595105 5.86175 0.499275 5.61958 0.499275C5.37741 0.499275 5.14508 0.595105 4.97333 0.765835L1.04083 4.7075C0.696545 5.04974 0.502047 5.51456 0.5 6C0.504461 6.48226 0.698774 6.94335 1.04083 7.28334L4.97333 11.225C5.0588 11.3099 5.16015 11.3771 5.27159 11.4228C5.38303 11.4685 5.50238 11.4918 5.62282 11.4913C5.74327 11.4909 5.86245 11.4668 5.97357 11.4203C6.08468 11.3738 6.18555 11.3059 6.27042 11.2204C6.35528 11.135 6.42248 11.0336 6.46818 10.9222C6.51388 10.8107 6.53719 10.6914 6.53676 10.5709C6.53633 10.4505 6.51219 10.3313 6.4657 10.2202C6.41922 10.1091 6.3513 10.0082 6.26583 9.92334L3.25 6.91667H12.4167C12.6598 6.91667 12.8929 6.82009 13.0648 6.64818C13.2368 6.47627 13.3333 6.24312 13.3333 6C13.3333 5.75689 13.2368 5.52373 13.0648 5.35182C12.8929 5.17991 12.6598 5.08334 12.4167 5.08334Z" fill="#686868"/>
</svg>
